<svg xmlns="http://www.w3.org/2000/svg" width="88.3" height="144"><style>.st0{fill:#f4f7f9}.st1{fill:#e4e4e4}</style><g id="XMLID_18_"><g id="XMLID_21_"><path id="XMLID_25_" class="st0" d="M47.5 45.1H0v5.2l88.3 39.9V76.9c0-10-6.2-19-15.6-22.5l-25.2-9.3z"/><path id="XMLID_24_" class="st1" d="M47.5 45.1L88.3 30V0l-78 30.3C4.1 32.7 0 38.6 0 45.2v5.1l15.2 6.9 32.3-12.1z"/></g><path id="XMLID_20_" class="st0" d="M0 53.8v13.3c0 10 6.2 19 15.6 22.5l25.1 9.3H88.3v-5l-15.4-7L0 53.8z"/><path id="XMLID_19_" class="st1" d="M88.3 93.9v4.9c0 6.6-4.1 12.5-10.2 14.9L0 144v-29.9L40.7 99l32.2-12 15.4 6.9z"/></g></svg>